<svg version="1.1" id="Layer_1" xmlns="http://www.w3.org/2000/svg" xmlns:xlink="http://www.w3.org/1999/xlink" x="0px" y="0px"
	 width="100%" viewBox="0 0 559 288" enable-background="new 0 0 559 288" xml:space="preserve">
<path fill="#000000" opacity="1.000000" stroke="none" 
	d="
M291.000000,1.000000 
	C380.643616,1.000000 470.287231,1.000000 559.965454,1.000000 
	C559.965454,96.952263 559.965454,192.904541 559.965454,288.928406 
	C373.762329,288.928406 187.524612,288.928406 1.143448,288.928406 
	C1.143448,193.120499 1.143448,97.240715 1.143448,1.000000 
	C96.021706,1.000000 191.043869,1.000000 286.816467,1.306271 
	C284.823456,3.846618 281.853912,5.857086 279.380463,8.358200 
	C272.876678,14.934703 266.589447,21.725349 260.214691,28.429457 
	C253.496170,35.495075 246.813339,42.595215 240.037750,49.605682 
	C237.472015,52.260368 236.538986,55.147636 238.840012,58.205200 
	C240.563568,60.495434 242.843384,62.367031 244.900055,64.762535 
	C246.903625,68.509903 248.666794,72.168823 253.421631,72.478973 
	C253.465775,72.530518 253.568436,72.619278 253.421234,72.980667 
	C253.977676,73.705551 254.681335,74.069046 255.425888,74.484100 
	C255.466782,74.535667 255.568451,74.619286 255.421234,74.980659 
	C255.977646,75.705536 256.681274,76.069038 257.425842,76.484085 
	C257.466766,76.535645 257.568451,76.619293 257.421234,76.980667 
	C257.977661,77.705536 258.681274,78.069031 259.422363,78.486565 
	C259.459778,78.540596 259.552216,78.634071 259.472656,78.916092 
	C259.719116,79.280937 260.045105,79.363770 260.412567,79.497169 
	C260.454010,79.547729 260.552216,79.634071 260.472656,79.916084 
	C260.719116,80.280937 261.045105,80.363770 261.412567,80.497162 
	C261.454010,80.547729 261.552216,80.634071 261.472656,80.916092 
	C261.719116,81.280937 262.045105,81.363777 262.412567,81.497169 
	C262.454010,81.547729 262.552216,81.634071 262.472656,81.916092 
	C262.719116,82.280937 263.045105,82.363770 263.412567,82.497169 
	C263.454010,82.547729 263.552216,82.634071 263.472656,82.916092 
	C263.719116,83.280945 264.045105,83.363777 264.412567,83.497177 
	C264.454010,83.547729 264.552216,83.634071 264.472656,83.916092 
	C264.719116,84.280945 265.045105,84.363777 265.412567,84.497169 
	C265.454010,84.547729 265.552216,84.634071 265.472656,84.916092 
	C265.719116,85.280937 266.045105,85.363777 266.412567,85.497169 
	C266.454010,85.547729 266.552216,85.634071 266.472656,85.916092 
	C266.719116,86.280937 267.045105,86.363770 267.412567,86.497169 
	C267.454010,86.547729 267.552216,86.634071 267.472656,86.916084 
	C267.719116,87.280937 268.045105,87.363770 268.412567,87.497162 
	C268.454010,87.547729 268.552216,87.634071 268.472656,87.916092 
	C268.719116,88.280945 269.045105,88.363777 269.412567,88.497169 
	C269.454010,88.547729 269.552216,88.634071 269.472656,88.916092 
	C269.719116,89.280937 270.045105,89.363777 270.412567,89.497169 
	C270.454010,89.547729 270.552216,89.634071 270.472656,89.916092 
	C270.719116,90.280937 271.045105,90.363770 271.419037,90.494522 
	C271.466949,90.542442 271.573639,90.626045 271.411804,90.967896 
	C274.573029,94.498413 277.896088,97.687080 281.354767,101.199921 
	C283.928986,105.329674 287.827209,105.988251 291.392944,104.586731 
	C293.910278,103.597282 295.765656,100.790962 297.772980,98.660530 
	C305.097595,90.886757 312.266388,82.964020 319.681763,75.278664 
	C324.842743,69.929779 330.411255,64.974846 335.594452,59.646248 
	C337.773773,57.405800 340.633301,54.964012 337.830750,50.895470 
	C337.419189,50.203449 336.984894,49.852734 336.544556,49.453148 
	C336.538513,49.404270 336.447784,49.365936 336.527344,49.083916 
	C336.280884,48.719051 335.954865,48.636215 335.587402,48.502823 
	C335.545990,48.452267 335.447784,48.365936 335.527344,48.083912 
	C335.280884,47.719051 334.954865,47.636211 334.587402,47.502823 
	C334.545990,47.452267 334.447784,47.365936 334.527344,47.083912 
	C334.280884,46.719048 333.954865,46.636211 333.587402,46.502823 
	C333.545990,46.452267 333.447784,46.365936 333.527344,46.083912 
	C333.280884,45.719051 332.954865,45.636215 332.587402,45.502823 
	C332.545990,45.452267 332.447784,45.365936 332.527344,45.083912 
	C332.280884,44.719051 331.954865,44.636211 331.587402,44.502823 
	C331.545990,44.452267 331.447784,44.365936 331.527344,44.083908 
	C331.280884,43.719048 330.954865,43.636211 330.587402,43.502819 
	C330.545990,43.452267 330.447784,43.365936 330.527344,43.083908 
	C330.280884,42.719048 329.954865,42.636208 329.587402,42.502819 
	C329.545990,42.452267 329.447784,42.365936 329.527344,42.083912 
	C329.280884,41.719048 328.954865,41.636211 328.587402,41.502823 
	C328.545990,41.452267 328.447784,41.365936 328.527344,41.083916 
	C328.280884,40.719055 327.954865,40.636215 327.587402,40.502823 
	C327.545990,40.452267 327.447784,40.365936 327.527344,40.083916 
	C327.280884,39.719051 326.954865,39.636215 326.587402,39.502823 
	C326.545990,39.452267 326.447784,39.365936 326.527344,39.083912 
	C326.280884,38.719051 325.954865,38.636215 325.600586,38.506748 
	C325.572296,38.460121 325.471008,38.419727 325.546722,38.109570 
	C325.099274,37.523609 324.576080,37.247807 323.762512,36.797390 
	C321.020447,33.757504 318.710358,30.754927 316.090332,28.052927 
	C308.484802,20.209446 300.726440,12.514306 293.110016,4.681258 
	C292.154907,3.698990 291.691315,2.238766 291.000000,1.000000 
M379.549347,88.450432 
	C379.549347,88.450432 379.451233,88.367714 379.608856,87.809166 
	C379.286346,87.728905 378.963867,87.648643 378.557709,87.479195 
	C378.557709,87.479195 378.447632,87.425980 378.582306,86.815292 
	C378.072632,86.534279 377.562958,86.253265 376.477142,85.625397 
	C371.778687,80.515450 367.224609,75.262054 362.335449,70.341614 
	C358.529419,66.511276 353.195923,67.296967 350.081299,71.683868 
	C349.140442,73.009071 348.151764,74.324913 347.023865,75.488937 
	C335.632812,87.245010 324.226624,98.986603 312.781799,110.690292 
	C309.427460,114.120483 306.814240,117.756836 307.997620,123.591255 
	C308.475952,123.889618 308.954315,124.187981 309.458740,124.586067 
	C309.458740,124.586067 309.549347,124.635208 309.391724,125.199562 
	C309.717865,125.282898 310.044006,125.366226 310.451721,125.550148 
	C310.451721,125.550148 310.549347,125.635208 310.391724,126.199562 
	C310.717865,126.282898 311.044006,126.366226 311.465179,126.544785 
	C311.465179,126.544785 311.571442,126.627258 311.248962,127.311409 
	C314.571808,130.499817 317.894623,133.688217 321.463043,137.486084 
	C331.098877,147.146164 340.731537,156.809448 350.371704,166.465210 
	C356.809265,172.913193 358.558533,172.947128 364.881104,166.462112 
	C375.502289,155.568008 386.102570,144.652969 396.637299,133.675430 
	C400.065460,130.103165 403.259827,126.306664 406.564636,122.615868 
	C408.238861,120.746124 408.724304,118.720001 406.937592,116.725441 
	C402.377502,111.634911 397.731689,106.621185 392.998779,101.012878 
	C392.532104,100.859100 392.065399,100.705322 391.540955,100.445267 
	C391.540955,100.445267 391.450653,100.364777 391.608307,99.800423 
	C391.282166,99.717094 390.955994,99.633759 390.548279,99.449844 
	C390.548279,99.449844 390.450653,99.364784 390.608276,98.800430 
	C390.282135,98.717094 389.955994,98.633759 389.548279,98.449844 
	C389.548279,98.449844 389.450653,98.364784 389.608276,97.800430 
	C389.282135,97.717094 388.955994,97.633759 388.548279,97.449844 
	C388.548279,97.449844 388.450653,97.364784 388.608276,96.800430 
	C388.282135,96.717094 387.955994,96.633759 387.548279,96.449844 
	C387.548279,96.449844 387.450653,96.364784 387.608276,95.800430 
	C387.282135,95.717094 386.955994,95.633759 386.548279,95.449844 
	C386.548279,95.449844 386.450653,95.364784 386.608276,94.800438 
	C386.282135,94.717102 385.955994,94.633766 385.548279,94.449844 
	C385.548279,94.449844 385.450653,94.364784 385.608276,93.800430 
	C385.282135,93.717094 384.955994,93.633759 384.548279,93.449844 
	C384.548279,93.449844 384.450653,93.364784 384.608276,92.800430 
	C384.282135,92.717094 383.955994,92.633759 383.548279,92.449844 
	C383.548279,92.449844 383.450653,92.364784 383.608276,91.800430 
	C383.282135,91.717094 382.955994,91.633759 382.548279,91.449844 
	C382.548279,91.449844 382.450653,91.364784 382.608276,90.800430 
	C382.282135,90.717094 381.955994,90.633759 381.548279,90.449844 
	C381.548279,90.449844 381.450653,90.364784 381.608276,89.800430 
	C381.282135,89.717094 380.955994,89.633759 380.548279,89.449844 
	C380.548279,89.449844 380.450653,89.364784 380.608276,88.800423 
	C380.282135,88.717087 379.955994,88.633751 379.549347,88.450432 
M169.567581,118.010712 
	C168.006989,121.101906 168.873093,123.474808 171.355789,125.788681 
	C175.370956,129.530823 179.085831,133.592758 183.010025,137.435394 
	C193.571136,147.776978 204.186966,158.062668 214.755753,168.396423 
	C217.553268,171.131714 220.331024,171.746658 223.351364,168.758011 
	C228.405273,163.757172 233.567673,158.863617 238.543793,153.787064 
	C247.619263,144.528488 256.568176,135.145996 265.617523,125.861603 
	C270.073547,121.289848 270.215668,117.218849 265.686646,112.626617 
	C252.013062,98.762131 238.270355,84.965866 224.584869,71.113075 
	C221.159515,67.645851 216.433350,66.949005 212.380035,71.425827 
	C208.026962,76.233727 203.465836,80.853577 198.984482,85.544960 
	C190.632828,94.288040 182.238617,102.990913 173.947510,111.790985 
	C172.383408,113.451111 171.216522,115.485466 169.567581,118.010712 
M367.361237,61.868336 
	C368.220306,61.811588 369.079376,61.754837 371.435577,61.599190 
	C366.897858,57.580387 363.515228,54.351517 359.835358,51.507233 
	C359.025421,50.881199 356.609802,51.096928 355.899841,51.843685 
	C354.570129,53.242310 352.740295,56.019356 353.287079,56.953117 
	C354.347809,58.764515 356.754578,60.242641 358.890503,60.850098 
	C361.357208,61.551632 364.133514,61.164635 367.361237,61.868336 
z"/>
<path fill="#EC9913" opacity="1.000000" stroke="none" 
	d="
M244.875549,64.425018 
	C242.843384,62.367031 240.563568,60.495434 238.840012,58.205200 
	C236.538986,55.147636 237.472015,52.260368 240.037750,49.605682 
	C246.813339,42.595215 253.496170,35.495075 260.214691,28.429457 
	C266.589447,21.725349 272.876678,14.934703 279.380463,8.358200 
	C281.853912,5.857086 284.823456,3.846618 287.283447,1.306271 
	C288.066681,1.000000 289.133331,1.000000 290.600006,1.000000 
	C291.691315,2.238766 292.154907,3.698990 293.110016,4.681258 
	C300.726440,12.514306 308.484802,20.209446 316.090332,28.052927 
	C318.710358,30.754927 321.020447,33.757504 323.836273,37.055622 
	C324.623962,37.798889 325.047485,38.109310 325.471008,38.419727 
	C325.471008,38.419727 325.572296,38.460121 325.684387,38.687981 
	C325.959106,39.144657 326.176208,39.294689 326.447784,39.365936 
	C326.447784,39.365936 326.545990,39.452267 326.671204,39.684055 
	C326.959106,40.144657 327.176208,40.294689 327.447784,40.365936 
	C327.447784,40.365936 327.545990,40.452267 327.671204,40.684055 
	C327.959106,41.144657 328.176208,41.294689 328.447784,41.365936 
	C328.447784,41.365936 328.545990,41.452267 328.671204,41.684055 
	C328.959106,42.144657 329.176208,42.294689 329.447784,42.365936 
	C329.447784,42.365936 329.545990,42.452267 329.671204,42.684055 
	C329.959106,43.144657 330.176208,43.294689 330.447784,43.365936 
	C330.447784,43.365936 330.545990,43.452267 330.671204,43.684055 
	C330.959106,44.144657 331.176208,44.294689 331.447784,44.365936 
	C331.447784,44.365936 331.545990,44.452267 331.671204,44.684055 
	C331.959106,45.144657 332.176208,45.294689 332.447784,45.365936 
	C332.447784,45.365936 332.545990,45.452267 332.671204,45.684055 
	C332.959106,46.144657 333.176208,46.294689 333.447784,46.365936 
	C333.447784,46.365936 333.545990,46.452267 333.671204,46.684055 
	C333.959106,47.144657 334.176208,47.294689 334.447784,47.365936 
	C334.447784,47.365936 334.545990,47.452267 334.671204,47.684055 
	C334.959106,48.144657 335.176208,48.294689 335.447784,48.365936 
	C335.447784,48.365936 335.545990,48.452267 335.671204,48.684055 
	C335.959106,49.144657 336.176208,49.294689 336.447784,49.365936 
	C336.447784,49.365936 336.538513,49.404270 336.639496,49.709534 
	C337.096344,50.422123 337.452179,50.829453 337.808044,51.236778 
	C340.633301,54.964012 337.773773,57.405800 335.594452,59.646248 
	C330.411255,64.974846 324.842743,69.929779 319.681763,75.278664 
	C312.266388,82.964020 305.097595,90.886757 297.772980,98.660530 
	C295.765656,100.790962 293.910278,103.597282 291.392944,104.586731 
	C287.827209,105.988251 283.928986,105.329674 281.340912,100.852982 
	C277.985504,96.996597 274.779572,93.811317 271.573639,90.626045 
	C271.573639,90.626045 271.466949,90.542442 271.335266,90.313293 
	C271.040894,89.855331 270.823792,89.705315 270.552216,89.634071 
	C270.552216,89.634071 270.454010,89.547729 270.328796,89.315933 
	C270.040894,88.855331 269.823792,88.705315 269.552216,88.634071 
	C269.552216,88.634071 269.454010,88.547729 269.328796,88.315933 
	C269.040894,87.855331 268.823792,87.705315 268.552216,87.634071 
	C268.552216,87.634071 268.454010,87.547729 268.328796,87.315933 
	C268.040894,86.855331 267.823792,86.705315 267.552216,86.634071 
	C267.552216,86.634071 267.454010,86.547729 267.328796,86.315933 
	C267.040894,85.855331 266.823792,85.705315 266.552216,85.634071 
	C266.552216,85.634071 266.454010,85.547729 266.328796,85.315933 
	C266.040894,84.855331 265.823792,84.705315 265.552216,84.634071 
	C265.552216,84.634071 265.454010,84.547729 265.328796,84.315933 
	C265.040894,83.855331 264.823792,83.705315 264.552216,83.634071 
	C264.552216,83.634071 264.454010,83.547729 264.328796,83.315933 
	C264.040894,82.855331 263.823792,82.705315 263.552216,82.634071 
	C263.552216,82.634071 263.454010,82.547729 263.328796,82.315933 
	C263.040894,81.855331 262.823792,81.705315 262.552216,81.634071 
	C262.552216,81.634071 262.454010,81.547729 262.328796,81.315933 
	C262.040894,80.855331 261.823792,80.705315 261.552216,80.634071 
	C261.552216,80.634071 261.454010,80.547729 261.328796,80.315933 
	C261.040894,79.855331 260.823792,79.705315 260.552216,79.634071 
	C260.552216,79.634071 260.454010,79.547729 260.328796,79.315933 
	C260.040894,78.855331 259.823792,78.705315 259.552216,78.634071 
	C259.552216,78.634071 259.459778,78.540596 259.312134,78.247787 
	C258.632446,77.509750 258.100464,77.064522 257.568451,76.619293 
	C257.568451,76.619293 257.466766,76.535645 257.315613,76.245316 
	C256.632477,75.509750 256.100464,75.064514 255.568451,74.619286 
	C255.568451,74.619286 255.466782,74.535667 255.315628,74.245338 
	C254.632462,73.509766 254.100449,73.064522 253.568436,72.619278 
	C253.568436,72.619278 253.465775,72.530518 253.283066,72.198883 
	C250.358749,69.386497 247.617157,66.905754 244.875549,64.425018 
z"/>
<path fill="#EB9813" opacity="1.000000" stroke="none" 
	d="
M308.062531,122.924637 
	C306.814240,117.756836 309.427460,114.120483 312.781799,110.690292 
	C324.226624,98.986603 335.632812,87.245010 347.023865,75.488937 
	C348.151764,74.324913 349.140442,73.009071 350.081299,71.683868 
	C353.195923,67.296967 358.529419,66.511276 362.335449,70.341614 
	C367.224609,75.262054 371.778687,80.515450 376.837280,86.055046 
	C377.614166,86.798454 378.030884,87.112221 378.447632,87.425980 
	C378.447632,87.425980 378.557709,87.479195 378.682983,87.702713 
	C378.967987,88.152878 379.182312,88.300041 379.451233,88.367714 
	C379.451233,88.367714 379.549347,88.450432 379.673767,88.681915 
	C379.961182,89.142578 380.178680,89.293037 380.450653,89.364784 
	C380.450653,89.364784 380.548279,89.449844 380.673218,89.681625 
	C380.961182,90.142578 381.178680,90.293037 381.450653,90.364784 
	C381.450653,90.364784 381.548279,90.449844 381.673218,90.681625 
	C381.961182,91.142578 382.178680,91.293037 382.450653,91.364784 
	C382.450653,91.364784 382.548279,91.449844 382.673218,91.681625 
	C382.961182,92.142578 383.178680,92.293037 383.450653,92.364784 
	C383.450653,92.364784 383.548279,92.449844 383.673218,92.681625 
	C383.961182,93.142578 384.178680,93.293037 384.450653,93.364784 
	C384.450653,93.364784 384.548279,93.449844 384.673218,93.681625 
	C384.961182,94.142578 385.178680,94.293037 385.450653,94.364784 
	C385.450653,94.364784 385.548279,94.449844 385.673218,94.681625 
	C385.961182,95.142578 386.178680,95.293037 386.450653,95.364784 
	C386.450653,95.364784 386.548279,95.449844 386.673218,95.681625 
	C386.961182,96.142578 387.178680,96.293037 387.450653,96.364784 
	C387.450653,96.364784 387.548279,96.449844 387.673218,96.681625 
	C387.961182,97.142578 388.178680,97.293037 388.450653,97.364784 
	C388.450653,97.364784 388.548279,97.449844 388.673218,97.681625 
	C388.961182,98.142578 389.178680,98.293037 389.450653,98.364784 
	C389.450653,98.364784 389.548279,98.449844 389.673218,98.681625 
	C389.961182,99.142578 390.178680,99.293037 390.450653,99.364784 
	C390.450653,99.364784 390.548279,99.449844 390.673218,99.681625 
	C390.961182,100.142555 391.178680,100.293015 391.450653,100.364777 
	C391.450653,100.364777 391.540955,100.445267 391.682800,100.736916 
	C392.256470,101.211296 392.688324,101.394020 393.120148,101.576744 
	C397.731689,106.621185 402.377502,111.634911 406.937592,116.725441 
	C408.724304,118.720001 408.238861,120.746124 406.564636,122.615868 
	C403.259827,126.306664 400.065460,130.103165 396.637299,133.675430 
	C386.102570,144.652969 375.502289,155.568008 364.881104,166.462112 
	C358.558533,172.947128 356.809265,172.913193 350.371704,166.465210 
	C340.731537,156.809448 331.098877,147.146164 321.326233,136.834488 
	C317.983398,132.997681 314.777435,129.812469 311.571442,126.627258 
	C311.571442,126.627258 311.465179,126.544785 311.333496,126.315681 
	C311.038818,125.857430 310.821320,125.706970 310.549347,125.635208 
	C310.549347,125.635208 310.451721,125.550148 310.326782,125.318359 
	C310.038818,124.857430 309.821320,124.706970 309.549347,124.635208 
	C309.549347,124.635208 309.458740,124.586067 309.341553,124.290207 
	C308.837097,123.637772 308.449829,123.281204 308.062531,122.924637 
z"/>
<path fill="#EC9813" opacity="1.000000" stroke="none" 
	d="
M169.716965,117.678925 
	C171.216522,115.485466 172.383408,113.451111 173.947510,111.790985 
	C182.238617,102.990913 190.632828,94.288040 198.984482,85.544960 
	C203.465836,80.853577 208.026962,76.233727 212.380035,71.425827 
	C216.433350,66.949005 221.159515,67.645851 224.584869,71.113075 
	C238.270355,84.965866 252.013062,98.762131 265.686646,112.626617 
	C270.215668,117.218849 270.073547,121.289848 265.617523,125.861603 
	C256.568176,135.145996 247.619263,144.528488 238.543793,153.787064 
	C233.567673,158.863617 228.405273,163.757172 223.351364,168.758011 
	C220.331024,171.746658 217.553268,171.131714 214.755753,168.396423 
	C204.186966,158.062668 193.571136,147.776978 183.010025,137.435394 
	C179.085831,133.592758 175.370956,129.530823 171.355789,125.788681 
	C168.873093,123.474808 168.006989,121.101906 169.716965,117.678925 
z"/>
<path fill="#FEFEFE" opacity="1.000000" stroke="none" 
	d="
M367.068298,61.559315 
	C364.133514,61.164635 361.357208,61.551632 358.890503,60.850098 
	C356.754578,60.242641 354.347809,58.764515 353.287079,56.953117 
	C352.740295,56.019356 354.570129,53.242310 355.899841,51.843685 
	C356.609802,51.096928 359.025421,50.881199 359.835358,51.507233 
	C363.515228,54.351517 366.897858,57.580387 371.435577,61.599190 
	C369.079376,61.754837 368.220306,61.811588 367.068298,61.559315 
z"/>
<path fill="#3B2B11" opacity="1.000000" stroke="none" 
	d="
M311.410217,126.969330 
	C314.777435,129.812469 317.983398,132.997681 321.203430,136.529755 
	C317.894623,133.688217 314.571808,130.499817 311.410217,126.969330 
z"/>
<path fill="#3B2B11" opacity="1.000000" stroke="none" 
	d="
M271.411804,90.967896 
	C274.779572,93.811317 277.985504,96.996597 281.205292,100.528809 
	C277.896088,97.687080 274.573029,94.498413 271.411804,90.967896 
z"/>
<path fill="#3B2B11" opacity="1.000000" stroke="none" 
	d="
M244.900055,64.762535 
	C247.617157,66.905754 250.358749,69.386497 253.238922,72.147339 
	C248.666794,72.168823 246.903625,68.509903 244.900055,64.762535 
z"/>
<path fill="#3B2B11" opacity="1.000000" stroke="none" 
	d="
M257.421234,76.980667 
	C258.100464,77.064522 258.632446,77.509750 259.274689,78.193756 
	C258.681274,78.069031 257.977661,77.705536 257.421234,76.980667 
z"/>
<path fill="#3B2B11" opacity="1.000000" stroke="none" 
	d="
M255.421234,74.980659 
	C256.100464,75.064514 256.632477,75.509750 257.274719,76.193756 
	C256.681274,76.069038 255.977646,75.705536 255.421234,74.980659 
z"/>
<path fill="#3B2B11" opacity="1.000000" stroke="none" 
	d="
M253.421234,72.980667 
	C254.100449,73.064522 254.632462,73.509766 255.274734,74.193771 
	C254.681335,74.069046 253.977676,73.705551 253.421234,72.980667 
z"/>
<path fill="#3B2B11" opacity="1.000000" stroke="none" 
	d="
M378.514954,87.120636 
	C378.030884,87.112221 377.614166,86.798454 377.125366,86.228470 
	C377.562958,86.253265 378.072632,86.534279 378.514954,87.120636 
z"/>
<path fill="#3B2B11" opacity="1.000000" stroke="none" 
	d="
M325.546722,38.109570 
	C325.047485,38.109310 324.623962,37.798889 324.126678,37.230236 
	C324.576080,37.247807 325.099274,37.523609 325.546722,38.109570 
z"/>
<path fill="#3B2B11" opacity="1.000000" stroke="none" 
	d="
M308.030090,123.257950 
	C308.449829,123.281204 308.837097,123.637772 309.328522,124.240341 
	C308.954315,124.187981 308.475952,123.889618 308.030090,123.257950 
z"/>
<path fill="#3B2B11" opacity="1.000000" stroke="none" 
	d="
M393.059448,101.294815 
	C392.688324,101.394020 392.256470,101.211296 391.711670,100.790054 
	C392.065399,100.705322 392.532104,100.859100 393.059448,101.294815 
z"/>
<path fill="#3B2B11" opacity="1.000000" stroke="none" 
	d="
M337.830750,50.895473 
	C337.452179,50.829453 337.096344,50.422123 336.645538,49.758408 
	C336.984894,49.852734 337.419189,50.203449 337.830750,50.895473 
z"/>
<path fill="#3B2B11" opacity="1.000000" stroke="none" 
	d="
M381.529480,90.082611 
	C381.178680,90.293037 380.961182,90.142578 380.714020,89.731911 
	C380.955994,89.633759 381.282135,89.717094 381.529480,90.082611 
z"/>
<path fill="#3B2B11" opacity="1.000000" stroke="none" 
	d="
M331.527344,44.083908 
	C331.176208,44.294689 330.959106,44.144657 330.712646,43.734608 
	C330.954865,43.636211 331.280884,43.719048 331.527344,44.083908 
z"/>
<path fill="#3B2B11" opacity="1.000000" stroke="none" 
	d="
M270.472656,89.916092 
	C270.823792,89.705315 271.040894,89.855331 271.287354,90.265373 
	C271.045105,90.363770 270.719116,90.280937 270.472656,89.916092 
z"/>
<path fill="#3B2B11" opacity="1.000000" stroke="none" 
	d="
M382.529480,91.082611 
	C382.178680,91.293037 381.961182,91.142578 381.714020,90.731911 
	C381.955994,90.633759 382.282135,90.717094 382.529480,91.082611 
z"/>
<path fill="#3B2B11" opacity="1.000000" stroke="none" 
	d="
M326.527344,39.083912 
	C326.176208,39.294689 325.959106,39.144657 325.712646,38.734612 
	C325.954865,38.636215 326.280884,38.719051 326.527344,39.083912 
z"/>
<path fill="#3B2B11" opacity="1.000000" stroke="none" 
	d="
M383.529480,92.082611 
	C383.178680,92.293037 382.961182,92.142578 382.714020,91.731911 
	C382.955994,91.633759 383.282135,91.717094 383.529480,92.082611 
z"/>
<path fill="#3B2B11" opacity="1.000000" stroke="none" 
	d="
M384.529480,93.082611 
	C384.178680,93.293037 383.961182,93.142578 383.714020,92.731911 
	C383.955994,92.633759 384.282135,92.717094 384.529480,93.082611 
z"/>
<path fill="#3B2B11" opacity="1.000000" stroke="none" 
	d="
M385.529480,94.082611 
	C385.178680,94.293037 384.961182,94.142578 384.714020,93.731911 
	C384.955994,93.633759 385.282135,93.717094 385.529480,94.082611 
z"/>
<path fill="#3B2B11" opacity="1.000000" stroke="none" 
	d="
M386.529480,95.082611 
	C386.178680,95.293037 385.961182,95.142578 385.714020,94.731918 
	C385.955994,94.633766 386.282135,94.717102 386.529480,95.082611 
z"/>
<path fill="#3B2B11" opacity="1.000000" stroke="none" 
	d="
M387.529480,96.082611 
	C387.178680,96.293037 386.961182,96.142578 386.714020,95.731911 
	C386.955994,95.633759 387.282135,95.717094 387.529480,96.082611 
z"/>
<path fill="#3B2B11" opacity="1.000000" stroke="none" 
	d="
M388.529480,97.082611 
	C388.178680,97.293037 387.961182,97.142578 387.714020,96.731911 
	C387.955994,96.633759 388.282135,96.717094 388.529480,97.082611 
z"/>
<path fill="#3B2B11" opacity="1.000000" stroke="none" 
	d="
M389.529480,98.082611 
	C389.178680,98.293037 388.961182,98.142578 388.714020,97.731911 
	C388.955994,97.633759 389.282135,97.717094 389.529480,98.082611 
z"/>
<path fill="#3B2B11" opacity="1.000000" stroke="none" 
	d="
M390.529480,99.082611 
	C390.178680,99.293037 389.961182,99.142578 389.714020,98.731911 
	C389.955994,98.633759 390.282135,98.717094 390.529480,99.082611 
z"/>
<path fill="#3B2B11" opacity="1.000000" stroke="none" 
	d="
M391.529480,100.082596 
	C391.178680,100.293015 390.961182,100.142555 390.713989,99.731918 
	C390.955994,99.633759 391.282166,99.717094 391.529480,100.082596 
z"/>
<path fill="#3B2B11" opacity="1.000000" stroke="none" 
	d="
M333.527344,46.083912 
	C333.176208,46.294689 332.959106,46.144657 332.712646,45.734612 
	C332.954865,45.636215 333.280884,45.719051 333.527344,46.083912 
z"/>
<path fill="#3B2B11" opacity="1.000000" stroke="none" 
	d="
M332.527344,45.083912 
	C332.176208,45.294689 331.959106,45.144657 331.712646,44.734612 
	C331.954865,44.636211 332.280884,44.719051 332.527344,45.083912 
z"/>
<path fill="#3B2B11" opacity="1.000000" stroke="none" 
	d="
M309.470520,124.917389 
	C309.821320,124.706970 310.038818,124.857430 310.286011,125.268066 
	C310.044006,125.366226 309.717865,125.282898 309.470520,124.917389 
z"/>
<path fill="#3B2B11" opacity="1.000000" stroke="none" 
	d="
M310.470520,125.917389 
	C310.821320,125.706970 311.038818,125.857430 311.286011,126.268066 
	C311.044006,126.366226 310.717865,126.282898 310.470520,125.917389 
z"/>
<path fill="#3B2B11" opacity="1.000000" stroke="none" 
	d="
M329.527344,42.083912 
	C329.176208,42.294689 328.959106,42.144657 328.712646,41.734612 
	C328.954865,41.636211 329.280884,41.719048 329.527344,42.083912 
z"/>
<path fill="#3B2B11" opacity="1.000000" stroke="none" 
	d="
M263.472656,82.916092 
	C263.823792,82.705315 264.040894,82.855331 264.287354,83.265381 
	C264.045105,83.363777 263.719116,83.280945 263.472656,82.916092 
z"/>
<path fill="#3B2B11" opacity="1.000000" stroke="none" 
	d="
M328.527344,41.083916 
	C328.176208,41.294689 327.959106,41.144657 327.712646,40.734612 
	C327.954865,40.636215 328.280884,40.719055 328.527344,41.083916 
z"/>
<path fill="#3B2B11" opacity="1.000000" stroke="none" 
	d="
M327.527344,40.083916 
	C327.176208,40.294689 326.959106,40.144657 326.712646,39.734612 
	C326.954865,39.636215 327.280884,39.719051 327.527344,40.083916 
z"/>
<path fill="#3B2B11" opacity="1.000000" stroke="none" 
	d="
M336.527344,49.083916 
	C336.176208,49.294689 335.959106,49.144657 335.712646,48.734612 
	C335.954865,48.636215 336.280884,48.719051 336.527344,49.083916 
z"/>
<path fill="#3B2B11" opacity="1.000000" stroke="none" 
	d="
M335.527344,48.083912 
	C335.176208,48.294689 334.959106,48.144657 334.712646,47.734612 
	C334.954865,47.636211 335.280884,47.719051 335.527344,48.083912 
z"/>
<path fill="#3B2B11" opacity="1.000000" stroke="none" 
	d="
M334.527344,47.083912 
	C334.176208,47.294689 333.959106,47.144657 333.712646,46.734612 
	C333.954865,46.636211 334.280884,46.719048 334.527344,47.083912 
z"/>
<path fill="#3B2B11" opacity="1.000000" stroke="none" 
	d="
M259.472656,78.916092 
	C259.823792,78.705315 260.040894,78.855331 260.287354,79.265373 
	C260.045105,79.363770 259.719116,79.280937 259.472656,78.916092 
z"/>
<path fill="#3B2B11" opacity="1.000000" stroke="none" 
	d="
M260.472656,79.916084 
	C260.823792,79.705315 261.040894,79.855331 261.287354,80.265366 
	C261.045105,80.363770 260.719116,80.280937 260.472656,79.916084 
z"/>
<path fill="#3B2B11" opacity="1.000000" stroke="none" 
	d="
M261.472656,80.916092 
	C261.823792,80.705315 262.040894,80.855331 262.287354,81.265373 
	C262.045105,81.363777 261.719116,81.280937 261.472656,80.916092 
z"/>
<path fill="#3B2B11" opacity="1.000000" stroke="none" 
	d="
M262.472656,81.916092 
	C262.823792,81.705315 263.040894,81.855331 263.287354,82.265373 
	C263.045105,82.363770 262.719116,82.280937 262.472656,81.916092 
z"/>
<path fill="#3B2B11" opacity="1.000000" stroke="none" 
	d="
M269.472656,88.916092 
	C269.823792,88.705315 270.040894,88.855331 270.287354,89.265373 
	C270.045105,89.363777 269.719116,89.280937 269.472656,88.916092 
z"/>
<path fill="#3B2B11" opacity="1.000000" stroke="none" 
	d="
M264.472656,83.916092 
	C264.823792,83.705315 265.040894,83.855331 265.287354,84.265373 
	C265.045105,84.363777 264.719116,84.280945 264.472656,83.916092 
z"/>
<path fill="#3B2B11" opacity="1.000000" stroke="none" 
	d="
M265.472656,84.916092 
	C265.823792,84.705315 266.040894,84.855331 266.287354,85.265373 
	C266.045105,85.363777 265.719116,85.280937 265.472656,84.916092 
z"/>
<path fill="#3B2B11" opacity="1.000000" stroke="none" 
	d="
M266.472656,85.916092 
	C266.823792,85.705315 267.040894,85.855331 267.287354,86.265373 
	C267.045105,86.363770 266.719116,86.280937 266.472656,85.916092 
z"/>
<path fill="#3B2B11" opacity="1.000000" stroke="none" 
	d="
M330.527344,43.083908 
	C330.176208,43.294689 329.959106,43.144657 329.712646,42.734608 
	C329.954865,42.636208 330.280884,42.719048 330.527344,43.083908 
z"/>
<path fill="#3B2B11" opacity="1.000000" stroke="none" 
	d="
M267.472656,86.916084 
	C267.823792,86.705315 268.040894,86.855331 268.287354,87.265366 
	C268.045105,87.363770 267.719116,87.280937 267.472656,86.916084 
z"/>
<path fill="#3B2B11" opacity="1.000000" stroke="none" 
	d="
M379.530029,88.088440 
	C379.182312,88.300041 378.967987,88.152878 378.724823,87.747299 
	C378.963867,87.648643 379.286346,87.728905 379.530029,88.088440 
z"/>
<path fill="#3B2B11" opacity="1.000000" stroke="none" 
	d="
M268.472656,87.916092 
	C268.823792,87.705315 269.040894,87.855331 269.287354,88.265373 
	C269.045105,88.363777 268.719116,88.280945 268.472656,87.916092 
z"/>
<path fill="#3B2B11" opacity="1.000000" stroke="none" 
	d="
M380.529480,89.082603 
	C380.178680,89.293037 379.961182,89.142578 379.714020,88.731903 
	C379.955994,88.633751 380.282135,88.717087 380.529480,89.082603 
z"/>
</svg>