<?xml version="1.0" standalone="no"?>
<!DOCTYPE svg PUBLIC "-//W3C//DTD SVG 20010904//EN"
 "http://www.w3.org/TR/2001/REC-SVG-20010904/DTD/svg10.dtd">
<svg version="1.0" xmlns="http://www.w3.org/2000/svg"
 width="523.000000pt" height="307.000000pt" viewBox="0 0 523.000000 307.000000"
 preserveAspectRatio="xMidYMid meet">
<metadata>
Created by potrace 1.16, written by Peter Selinger 2001-2019
</metadata>
<g transform="translate(0.000000,307.000000) scale(0.100000,-0.100000)"
fill="#000000" stroke="none">
<path d="M2624 2780 c-12 -5 -126 -118 -253 -251 -212 -223 -231 -246 -231
-278 0 -33 17 -53 238 -273 223 -224 240 -238 274 -238 34 0 49 13 269 239
128 132 237 250 241 262 5 14 4 33 -2 49 -14 33 -468 486 -495 493 -11 3 -30
2 -41 -3z m278 -245 c128 -130 237 -246 242 -259 6 -16 5 -29 -5 -43 -40 -57
-467 -483 -484 -483 -11 0 -114 94 -257 237 -199 199 -238 242 -238 266 0 23
35 65 191 230 249 262 274 287 298 287 12 0 106 -87 253 -235z"/>
<path d="M1759 1958 c-316 -331 -309 -324 -309 -360 0 -30 23 -57 243 -276
269 -269 269 -269 331 -209 19 17 127 128 240 245 192 199 206 216 206 250 0
35 -14 51 -243 280 -211 211 -246 242 -273 242 -27 0 -52 -22 -195 -172z m366
10 c266 -270 335 -345 335 -362 0 -10 -106 -127 -236 -262 -189 -195 -241
-244 -262 -244 -20 0 -73 47 -250 223 -123 122 -230 235 -238 250 -14 26 -14
31 1 54 16 24 428 460 450 475 34 25 61 7 200 -134z"/>
<path d="M3298 2118 c-51 -41 -459 -483 -464 -503 -3 -13 -3 -32 0 -42 3 -10
113 -125 244 -256 202 -201 242 -237 267 -237 26 -1 62 32 268 242 130 134
240 253 243 265 3 12 3 30 0 41 -4 11 -113 128 -244 261 -208 213 -241 242
-268 241 -16 0 -37 -6 -46 -12z m305 -246 c175 -175 237 -244 237 -261 0 -27
-20 -50 -281 -318 -136 -140 -194 -193 -211 -193 -33 0 -498 465 -498 498 0
24 5 29 309 350 123 129 160 162 180 162 21 0 75 -48 264 -238z"/>
</g>
</svg>
